<svg t="1604416139249" class="icon" viewBox="0 0 1024 1024" version="1.1" xmlns="http://www.w3.org/2000/svg" p-id="4886" width="32" height="32"><path d="M799.362 47.787H228.01c-78.807 0-142.882 62.928-142.882 140.315v647.796c0 77.387 64.075 140.315 142.882 140.315h571.392c78.766 0 142.84-62.996 142.84-140.37V188.102c-0.026-77.387-64.115-140.315-142.881-140.315zM280.63 266.417h246.388a32.4 32.4 0 1 1 0 64.772H280.63a32.4 32.4 0 1 1 0-64.772z m466.083 491.206H280.631a32.4 32.4 0 1 1 0-64.798h466.083a32.413 32.413 0 1 1 0 64.798z m0-213.224H280.631a32.4 32.4 0 1 1 0-64.798h466.083a32.4 32.4 0 1 1 0 64.798z m0 0" p-id="4887" fill="#f98d23"></path></svg>
