<!--<svg t="1594632928817" class="icon" viewBox="0 0 1055 1024" version="1.1" xmlns="http://www.w3.org/2000/svg" p-id="7843" width="32" height="32"><path d="M360.85225 320.724528H99.576197L26.157329 41.613933 83.525109 26.454572l62.123657 234.82148h215.203484v59.448476zM952.959071 320.724528h-261.276052v-59.448476h215.500726L969.01016 26.454572l57.367779 15.159361-73.418868 279.110595zM83.525109 1024l-57.36778-15.159361 73.418868-279.110595h261.276053v59.448476H145.648766l-62.123657 234.82148zM969.01016 1024l-61.826415-234.82148h-215.500726v-59.448476h261.276052l73.418868 279.110595-57.367779 15.159361zM0 521.363135h241.658055v59.448476H0zM813.552395 521.363135h241.955297v59.448476h-241.955297z" p-id="7844"></path><path d="M534.739042 193.207547m-193.207547 0a193.207547 193.207547 0 1 0 386.415094 0 193.207547 193.207547 0 1 0-386.415094 0Z" p-id="7845"></path><path d="M206.583454 554.654282a370.958491 326.074891 90 1 0 652.149783 0 370.958491 326.074891 90 1 0-652.149783 0Z" p-id="7846"></path></svg>-->
<svg t="1594633021649" class="icon" viewBox="0 0 1024 1024" version="1.1" xmlns="http://www.w3.org/2000/svg" p-id="7983" width="32" height="32"><path d="M473.599774 985.605193c0 27.14206 11.250941 38.394807 38.394807 38.394807 27.160122 0 38.396613-11.252747 38.396614-38.394807V660.722304c153.613547-39.653742 153.613547-257.776417 0-297.444608V38.411063C550.389388 11.252747 539.152897 0 511.992775 0c-27.143866 0-38.394807 11.252747-38.394807 38.411063v324.866633c-153.599097 39.668192-153.599097 257.790867 0 297.444608l0.001806 324.882889zM191.993904 670.472277c153.613547 39.669998 153.613547 257.792673 0 297.444609v17.686501c0 27.14206-11.234685 38.394807-38.393001 38.394807-27.145672 0-38.396613-11.252747-38.396613-38.394807v-17.686501c-153.597291-39.651936-153.597291-257.774611 0-297.444609V38.411063C115.202484 11.252747 126.453425 0 153.600903 0c27.160122 0 38.393001 11.252747 38.393001 38.411063v632.061214z m38.412869 148.731335c0-42.413645-34.394031-76.807676-76.80587-76.807676-42.415452 0-76.793227 34.394031-76.793227 76.807676S111.185451 895.993227 153.600903 895.993227c42.411839 0 76.80587-34.375969 76.80587-76.789615zM870.406322 281.604064c-42.428095 0-76.80587-34.377775-76.80587-76.79142 0-42.428095 34.377775-76.80587 76.80587-76.805871 42.411839 0 76.79142 34.377775 76.79142 76.805871-0.001806 42.413645-34.379581 76.79142-76.79142 76.79142z m38.396613-243.193001C908.802935 11.252747 897.548382 0 870.406322 0c-27.160122 0-38.411063 11.252747-38.411063 38.411063v17.670245c-153.599097 39.668192-153.599097 257.790867 0 297.444609v632.07747c0 27.14206 11.250941 38.394807 38.411063 38.394807 27.14206 0 38.396613-11.252747 38.396613-38.394807V353.525917c153.597291-39.653742 153.597291-257.776417 0-297.444609v-17.670245z"  p-id="7984"></path></svg>
