<svg t="1599284388343" class="icon" viewBox="0 0 1024 1024" version="1.1" xmlns="http://www.w3.org/2000/svg" p-id="17126" width="32" height="32"><path d="M918.709331 181.312 105.290664 181.312C50.783997 181.312 6.602664 225.493333 6.602664 280L6.602664 923.52c0 54.528 44.181333 98.688 98.688 98.688l813.418667 0c54.506667 0 98.688-44.16 98.688-98.688L1017.397331 280C1017.397331 225.493333 973.215997 181.312 918.709331 181.312zM904.991997 909.824 119.007997 909.824l0-616.106667 785.984 0L904.991997 909.824z" p-id="17127"></path><path d="M398.197331 288.469333 398.197331 112.426667l222.826667 0 0 176.042667 112.448 0L733.471997 98.709333c0-54.506667-44.202667-98.688-98.709333-98.688L384.479997 0c-54.485333 0-98.666667 44.202667-98.666667 98.709333l0 189.781333L398.197331 288.490667z" p-id="17128"></path><path d="M286.986664 531.178667l447.658667 0 0 112.405333-447.658667 0 0-112.405333Z" p-id="17129"></path><path d="M566.303997 797.312 566.303997 404.778667 566.303997 797.312Z" p-id="17130"></path><path d="M454.623997 391.104l112.384 0 0 392.512-112.384 0 0-392.512Z" p-id="17131"></path></svg>
