<svg t="1604414691292" class="icon" viewBox="0 0 1024 1024" version="1.1" xmlns="http://www.w3.org/2000/svg" p-id="3103" width="32" height="32"><path d="M751.213937 306.955244c6.51992 198.192597-58.776593 230.662448-58.776594 230.662448C756.663422 213.82743 381.167923 17.80814 381.167923 17.80814l31.561603 97.44199c69.643127 277.275011-47.877622 339.003409-47.877622 339.003409 10.866534-173.280663-97.960989-197.122162-97.960989-197.122162 35.908217 73.632929 6.098234 138.734818-14.142712 167.863615C182.521203 525.875348 164.583313 590.6853 164.583313 590.6853c-44.633881 211.199999 100.134296 319.476086 100.134296 319.476086 81.612532 66.075011 170.880294 75.806235 170.880294 75.806235 63.155644 9.796099 117.520749 3.405928 161.27882-10.120473 142.367808-44.01757 201.209276-150.509599 221.35291-192.580924 107.400276-224.434464-67.015696-476.31098-67.015696-476.31098z m-125.175979 476.505605s-34.837782 158.132391-182.8497 109.378958c0 0-52.613485-20.69507-61.695961-80.185286-7.947166-51.932299 34.513408-112.590262 71.524497-147.395607 12.455967-11.709906 93.581938-87.548579 84.888711-173.118476 0 0 116.450315 165.690308 88.132453 291.320411z" fill="#FF4444" p-id="3104"></path></svg>
