<svg xmlns="http://www.w3.org/2000/svg" xmlns:xlink="http://www.w3.org/1999/xlink" viewBox="0 0 400 240"><defs><style>.cls-1,.cls-4,.cls-5,.cls-6{isolation:isolate;}.cls-2{fill:url(#未命名的渐变_3);}.cls-3{opacity:0.36;mix-blend-mode:multiply;fill:url(#radial-gradient);}.cls-4,.cls-5{opacity:0.84;}.cls-4{fill:url(#未命名的渐变_2);}.cls-5{fill:url(#未命名的渐变_2-2);}.cls-6{opacity:0.66;fill:url(#未命名的渐变_16);}.cls-7{fill:url(#未命名的渐变_75);}.cls-8{fill:url(#未命名的渐变_38);}.cls-9{fill:#fff;}.cls-10{fill:url(#未命名的渐变_75-2);}.cls-11{fill:url(#未命名的渐变_38-2);}.cls-12{fill:url(#未命名的渐变_20);}.cls-13{fill:url(#未命名的渐变_20-2);}.cls-14{fill:url(#未命名的渐变_20-3);}.cls-15{fill:url(#未命名的渐变_55);}.cls-16{fill:url(#未命名的渐变_40);}.cls-17{fill:url(#未命名的渐变_40-2);}.cls-18{fill:none;stroke-miterlimit:10;stroke-width:3px;stroke:url(#未命名的渐变_40-3);}.cls-19{fill:#fddcbd;}.cls-19,.cls-20,.cls-21,.cls-22,.cls-23,.cls-24,.cls-25,.cls-26{fill-rule:evenodd;}.cls-20{fill:url(#未命名的渐变_15);}.cls-21{fill:url(#未命名的渐变_13);}.cls-22{fill:url(#未命名的渐变_15-2);}.cls-23{fill:url(#未命名的渐变_13-2);}.cls-24{fill:url(#未命名的渐变_12);}.cls-25{fill:url(#未命名的渐变_11);}.cls-26{fill:url(#未命名的渐变_10);}</style><linearGradient id="未命名的渐变_3" x1="-163.07" y1="-3484.03" x2="-163.07" y2="-3484.53" gradientTransform="matrix(390, 0, 0, -196, 63796, -682737.5)" gradientUnits="userSpaceOnUse"><stop offset="0" stop-color="#a9a9a9" stop-opacity="0.15"/><stop offset="1" stop-color="#a9a9a9" stop-opacity="0"/></linearGradient><radialGradient id="radial-gradient" cx="116.28" cy="18463.86" r="68.58" gradientTransform="translate(1.77 -3007.98) scale(1.64 0.17)" gradientUnits="userSpaceOnUse"><stop offset="0" stop-color="#808184"/><stop offset="0.07" stop-color="#9a9a9d"/><stop offset="0.17" stop-color="#b9b9bb"/><stop offset="0.28" stop-color="#d2d3d4"/><stop offset="0.4" stop-color="#e6e7e7"/><stop offset="0.53" stop-color="#f4f4f5"/><stop offset="0.7" stop-color="#fdfdfd"/><stop offset="0.99" stop-color="#fff"/></radialGradient><radialGradient id="未命名的渐变_2" cx="23.35" cy="-3456.5" r="1.3" gradientTransform="matrix(0, 21, 22.62, 0, 78477.88, -383.45)" gradientUnits="userSpaceOnUse"><stop offset="0" stop-color="#fff"/><stop offset="1" stop-color="#c2c2c2"/></radialGradient><radialGradient id="未命名的渐变_2-2" cx="21.94" cy="-3466.43" r="0.63" xlink:href="#未命名的渐变_2"/><radialGradient id="未命名的渐变_16" cx="86.43" cy="-3454.85" r="0.94" gradientTransform="matrix(0, 16, 17.23, 0, 59653.96, -1181.75)" gradientUnits="userSpaceOnUse"><stop offset="0" stop-color="#fff"/><stop offset="1" stop-color="#d8d8d8"/></radialGradient><linearGradient id="未命名的渐变_75" x1="128" y1="79.7" x2="224.17" y2="79.7" gradientUnits="userSpaceOnUse"><stop offset="0" stop-color="#eee"/><stop offset="0.03" stop-color="#ddd"/><stop offset="1" stop-color="#d8d8d8"/></linearGradient><linearGradient id="未命名的渐变_38" x1="128.83" y1="75.7" x2="225" y2="75.7" gradientUnits="userSpaceOnUse"><stop offset="0" stop-color="#f3f3f3"/><stop offset="1" stop-color="#f4f4f4"/></linearGradient><linearGradient id="未命名的渐变_75-2" x1="141" y1="92.7" x2="237.17" y2="92.7" xlink:href="#未命名的渐变_75"/><linearGradient id="未命名的渐变_38-2" x1="141.83" y1="88.7" x2="238" y2="88.7" xlink:href="#未命名的渐变_38"/><linearGradient id="未命名的渐变_20" x1="162.99" y1="44.28" x2="151.35" y2="44.28" gradientUnits="userSpaceOnUse"><stop offset="0" stop-color="#acf"/><stop offset="1" stop-color="#487fff" stop-opacity="0.6"/></linearGradient><linearGradient id="未命名的渐变_20-2" x1="172.28" y1="56.42" x2="150.93" y2="56.42" xlink:href="#未命名的渐变_20"/><linearGradient id="未命名的渐变_20-3" x1="172.28" y1="68.55" x2="150.93" y2="68.55" xlink:href="#未命名的渐变_20"/><linearGradient id="未命名的渐变_55" x1="200.19" y1="106.79" x2="149.56" y2="106.79" gradientUnits="userSpaceOnUse"><stop offset="0" stop-color="#dedede"/><stop offset="0.37" stop-color="#e2e2e2"/><stop offset="0.71" stop-color="#ededed"/><stop offset="1" stop-color="#fdfdfd"/></linearGradient><linearGradient id="未命名的渐变_40" x1="226.75" y1="59.13" x2="193" y2="59.12" gradientUnits="userSpaceOnUse"><stop offset="0" stop-color="#dedede"/><stop offset="1" stop-color="#fdfdfd"/></linearGradient><linearGradient id="未命名的渐变_40-2" x1="229" y1="48.44" x2="212.13" y2="48.44" xlink:href="#未命名的渐变_40"/><linearGradient id="未命名的渐变_40-3" x1="225.62" y1="105.95" x2="155.43" y2="105.95" xlink:href="#未命名的渐变_40"/><linearGradient id="未命名的渐变_15" x1="-836.99" y1="-2635.72" x2="-836.84" y2="-2635.71" gradientTransform="matrix(-1.56, 25.31, 58.87, 0, 154112.96, 21372.91)" gradientUnits="userSpaceOnUse"><stop offset="0" stop-color="#1f1e4a"/><stop offset="1" stop-color="#424677"/></linearGradient><linearGradient id="未命名的渐变_13" x1="-956.21" y1="-2639.73" x2="-956.05" y2="-2639.73" gradientTransform="matrix(0, 462.49, 63.87, 0, 168853.4, 442360.76)" gradientUnits="userSpaceOnUse"><stop offset="0" stop-color="#8caefb"/><stop offset="1" stop-color="#6894f9"/></linearGradient><linearGradient id="未命名的渐变_15-2" x1="-837" y1="-2640.63" x2="-836.84" y2="-2640.63" gradientTransform="matrix(0, 25.31, 58.87, 0, 155727.05, 21372.91)" xlink:href="#未命名的渐变_15"/><linearGradient id="未命名的渐变_13-2" x1="-953.46" y1="-2641.82" x2="-953.3" y2="-2641.82" gradientTransform="matrix(0, 331.32, 98.67, 0, 260927.94, 316041.22)" xlink:href="#未命名的渐变_13"/><linearGradient id="未命名的渐变_12" x1="236.97" y1="123.76" x2="276.55" y2="123.76" gradientUnits="userSpaceOnUse"><stop offset="0" stop-color="#fda457"/><stop offset="1" stop-color="#f96252"/></linearGradient><linearGradient id="未命名的渐变_11" x1="-772.17" y1="95.08" x2="-757.97" y2="95.08" gradientTransform="matrix(-1, 0, 0, 1, -512.8, 0)" gradientUnits="userSpaceOnUse"><stop offset="0" stop-color="#494983"/><stop offset="1" stop-color="#272557"/></linearGradient><linearGradient id="未命名的渐变_10" x1="-927.09" y1="-2647.13" x2="-926.93" y2="-2647.13" gradientTransform="translate(-270386.04 94878.87) rotate(90) scale(102.24)" gradientUnits="userSpaceOnUse"><stop offset="0" stop-color="#fff7ed"/><stop offset="1" stop-color="#ffebd6"/></linearGradient></defs><title>暂无图表</title><g class="cls-1"><g id="图层_1" data-name="图层 1"><ellipse id="背景" class="cls-2" cx="198" cy="230.36" rx="195" ry="98"/><ellipse class="cls-3" cx="192.5" cy="186.27" rx="112.5" ry="11.86"/><circle class="cls-4" cx="301.57" cy="110.93" r="14.43"/><circle class="cls-5" cx="77" cy="79.36" r="7"/><circle id="椭圆形" class="cls-6" cx="119.5" cy="203.36" r="8"/><rect class="cls-7" x="128" y="13.4" width="96.17" height="132.6" rx="6.14"/><rect class="cls-8" x="128.83" y="9.4" width="96.17" height="132.6" rx="5.19"/><rect class="cls-9" x="132.86" y="12.7" width="88.1" height="126" rx="4.73"/><rect class="cls-10" x="141" y="26.4" width="96.17" height="132.6" rx="6.14"/><rect class="cls-11" x="141.83" y="22.4" width="96.17" height="132.6" rx="5.19"/><rect class="cls-9" x="145.86" y="25.7" width="88.1" height="126" rx="4.73"/><rect class="cls-12" x="151.86" y="42.11" width="17.53" height="4.33" rx="1.37"/><rect class="cls-13" x="151.86" y="54.25" width="32.14" height="4.33" rx="1.37"/><rect class="cls-14" x="151.86" y="66.39" width="32.14" height="4.33" rx="1.37"/><path class="cls-15" d="M225.9,123.25H156.1V87.51A1.52,1.52,0,0,0,154.58,86h-1.31a1.52,1.52,0,0,0-1.51,1.51V124a1.49,1.49,0,0,0,.3.89,1.85,1.85,0,0,0-.07.48v.14a2.09,2.09,0,0,0,2.1,2.09H225.9a2.09,2.09,0,0,0,2.1-2.09v-.14A2.1,2.1,0,0,0,225.9,123.25Z"/><path class="cls-16" d="M209.88,42.25a16.88,16.88,0,1,0,16.87,16.87H209.88Z"/><path class="cls-17" d="M212.12,40V56.88H229A16.88,16.88,0,0,0,212.12,40Z"/><polyline class="cls-18" points="156.72 122.12 168.12 103 185.39 111 211.88 91 224.54 104"/><g id="Arm-Right1"><path class="cls-19" d="M237,115l-2.72-.07v-7.24l2.72-.07V115Z"/><path class="cls-19" d="M232.73,114.79h0l1.52.09v-7.24l-1.52.09h0a3.53,3.53,0,0,0,0,7.06Z"/></g><g id="Pants1"><g id="Leg-Right1"><path class="cls-20" d="M246.52,192.59a35.34,35.34,0,0,0-5.67,2.71.61.61,0,0,0-.22.67.6.6,0,0,0,.57.42h9.34a.9.9,0,0,0,.9-.85c.07-1.12.18-2.95.18-2.95Z"/><path class="cls-21" d="M258.2,138.84,247,139l-.37,53.59h5L257,138.84Z"/></g><g id="Leg-Left1"><path class="cls-22" d="M262.65,192.59a33.12,33.12,0,0,0-5.52,2.72.61.61,0,0,0-.2.67.6.6,0,0,0,.57.41h9.35a.9.9,0,0,0,.9-.91v-2.89Z"/><path class="cls-23" d="M267.75,138.84H254.2c0,1.46,8.56,53.75,8.56,53.75h5V138.84Z"/></g></g><path class="cls-24" d="M264.2,107.3l-18.11,0a2,2,0,0,0-.87.2,3.7,3.7,0,0,0-1.15-.2h-.24l-6.86.29V115l8.86.29H246a4.07,4.07,0,0,0,.6-.06l.54,5.37c.52,5.11-.83,16-1.1,18a.35.35,0,0,0,.28.39l3.66.71a34.78,34.78,0,0,0,12.5.13l5.23-.9V118.77l2.4,3.92,6.4-3.69S272.2,107,264.2,107.3Z"/><path id="Hand-Right" class="cls-19" d="M244.83,103.06l3.22.23a.57.57,0,0,0,.61-.46l.09-.41a.56.56,0,0,0-.29-.63l-1.22-.67,2.67-1.75a.51.51,0,0,0,.23-.36.53.53,0,0,0-.12-.42l-2.24-2.5a1.17,1.17,0,0,0-1.18-.34c-1.83.56-3.54,3.27-5.14,4.17h0l-10.67,8.39,3.87,5.9,10.17-11.15Z"/><g id="Arm-Right2"><path class="cls-19" d="M260,142l3.05-1,9.27-14.69-.74-1.22h0l-1.43-2.32,6.4-3.69,1.29,2.39h0l1.68,3.09a3.52,3.52,0,0,1-.11,3.72l-.09.14-11.14,16a25.68,25.68,0,0,1-3.88,4,1.13,1.13,0,0,1-1.22.16l-3-1.42a.52.52,0,0,1-.21-.76l1.77-2.66-1.38-.13a.57.57,0,0,1-.52-.46l-.08-.42A.58.58,0,0,1,260,142Z"/></g><g id="Head1"><path class="cls-25" d="M252.73,102.17s-5.37-5.33-7-6.52a.92.92,0,0,1-.38-.63h0c-.44-3.19-.21-6.14,3-6.58l2.82-.39a4.85,4.85,0,0,1,4.93,2.47h0c3.66,1.06,4,6.14,2.33,7.69l-5.67,4Z"/><path class="cls-26" d="M258.87,107.28l-.64-4.62-.32-2.3a2.06,2.06,0,1,0-2-3.21l-.37-.92a3.31,3.31,0,0,0-3.5-2l-6.3.88s.6,4.33,1.06,7.59a3.6,3.6,0,0,0,4.06,3.08l1-.14.23,1.66v.15a4.71,4.71,0,0,0,1.22,3c2.25,2.16,4.75,0,5.51-3.11Z"/></g></g></g></svg>
