<svg t="1599287747247" class="icon" viewBox="0 0 1027 1024" version="1.1" xmlns="http://www.w3.org/2000/svg" p-id="39946" width="32" height="32"><path d="M960 960 960 832l-64 0L896 384l98 0c29.2 0 41.1-38.4 17.2-55.5L585.7 23.8C563.6 7.9 537.8 0 512 0c-25.8 0-51.6 7.9-73.7 23.8L12.8 328.5C-11.1 345.6 0.7 384 30 384l98 0 0 448L64 832l0 128L0 960l0 64 1027 0 0-64L960 960zM475.6 75.8C486.3 68.1 498.9 64 512 64s25.7 4.1 36.4 11.8l341 244.2L134.6 320 475.6 75.8zM192 384l640 0 0 448L512 832 512 448 256 448l0 384-64 0L192 384zM448 832 320 832 320 512l128 0L448 832zM128 896l128 0 256 0 384 0 0 64L128 960 128 896z" p-id="39947"></path><path d="M768 448 576 448l0 256 192 0L768 448zM704 640l-64 0L640 512l64 0L704 640z" p-id="39948"></path></svg>
