<svg t="1604415176803" class="icon" viewBox="0 0 1024 1024" version="1.1" xmlns="http://www.w3.org/2000/svg" p-id="10382" width="32" height="32"><path d="M998.4 128v209.92c0 20.48-15.36 40.96-40.96 40.96-20.48 0-35.84-15.36-35.84-30.72V261.12l-296.96 230.4c-10.24 10.24-25.6 10.24-40.96 5.12l-5.12-5.12-174.08-138.24-281.6 189.44c-15.36 10.24-35.84 10.24-51.2-5.12l-5.12-5.12c-10.24-15.36-10.24-35.84 5.12-51.2l5.12-5.12 302.08-204.8c10.24-10.24 25.6-10.24 40.96 0l5.12 5.12 179.2 128 291.84-225.28-128 10.24c-20.48 0-35.84-10.24-40.96-30.72V153.6c0-20.48 10.24-35.84 30.72-40.96h5.12l199.68-20.48c15.36 0 35.84 15.36 35.84 35.84z" fill="#1D57E2" p-id="10383"></path><path d="M972.8 512c20.48 0 35.84 15.36 35.84 30.72v261.12c0 20.48-15.36 40.96-40.96 40.96-20.48 0-35.84-15.36-35.84-30.72v-261.12c0-25.6 20.48-40.96 40.96-40.96zM409.6 460.8c20.48 0 35.84 15.36 35.84 30.72v312.32c0 20.48-15.36 40.96-40.96 40.96-20.48 0-35.84-15.36-35.84-30.72V501.76c0-25.6 20.48-40.96 40.96-40.96z m-307.2 153.6c20.48 0 35.84 15.36 35.84 30.72v158.72c0 20.48-15.36 40.96-40.96 40.96-20.48 0-35.84-15.36-35.84-30.72v-158.72c0-25.6 20.48-40.96 40.96-40.96z m614.4 0c20.48 0 35.84 15.36 35.84 30.72v158.72c0 20.48-15.36 40.96-40.96 40.96-20.48 0-35.84-15.36-35.84-30.72v-158.72c0-25.6 20.48-40.96 40.96-40.96z" fill="#9E9E9E" p-id="10384"></path></svg>
