<svg t="1604416099181" class="icon" viewBox="0 0 1024 1024" version="1.1" xmlns="http://www.w3.org/2000/svg" p-id="3388" width="32" height="32"><path d="M823.72608 791.384064c0-114.958336-91.635712-243.181568-199.75168-295.141376 52.51072-39.786496 87.005184-105.007104 87.005184-179.06688C710.979584 196.134912 619.855872 98.304 507.107328 98.304s-203.876352 97.830912-203.876352 218.318848c0 74.612736 35.008512 140.93312 88.039424 180.1728-106.571776 53.61664-195.6352 192.897024-195.6352 291.274752 0 182.943744 628.09088 182.943744 628.09088 3.313664z m44.793856-315.584512c41.183232-30.951424 67.442688-81.801216 67.442688-139.280384 0-93.956096-71.04512-170.233856-158.564352-170.233856-22.140928 0-43.761664 4.972544-62.816256 13.817856 27.807744 37.582848 44.797952 85.11488 44.797952 136.517632 0 74.059776-34.492416 139.833344-87.00928 179.073024 108.115968 51.953664 199.757824 180.729856 199.757824 295.141376 0 4.419584-0.520192 8.841216-1.03424 12.70784 84.95104-13.2608 152.907776-45.871104 152.907776-97.818624-0.002048-88.991744-71.051264-189.026304-155.482112-229.924864zM146.722816 788.0704c0-98.377728 89.073664-237.658112 195.641344-291.268608-53.026816-39.794688-88.03328-105.566208-88.03328-180.178944 0-52.51072 17.502208-101.146624 46.336-138.733568-18.024448-7.735296-37.586944-11.60192-58.177536-11.60192-87.525376 0-158.570496 76.275712-158.570496 170.233856 0 58.036224 27.287552 109.426688 68.472832 140.38016C69.507072 518.354944 0 627.234816 0 703.506432c0 51.959808 65.3824 85.116928 147.757056 98.940928-0.516096-4.427776-1.03424-9.40032-1.03424-14.37696z m0 0" p-id="3389" fill="#1296db"></path></svg>
