<svg t="1599458147368" class="icon" viewBox="0 0 1365 1024" version="1.1" xmlns="http://www.w3.org/2000/svg" p-id="3290" width="32" height="32"><path d="M183.686095 131.169524v-26.185143C183.686095 46.957714 230.692571 0 288.670476 0h787.260953c58.026667 0 104.984381 47.006476 104.984381 104.984381v26.233905h78.750476c57.929143 0 104.935619 47.006476 104.935619 104.984381v551.058285a104.984381 104.984381 0 0 1-104.935619 104.984381h-78.750476a104.984381 104.984381 0 0 1-104.984381 104.984381H288.670476a104.984381 104.984381 0 0 1-104.984381-104.984381H104.984381A104.984381 104.984381 0 0 1 0 787.260952V236.202667C0 178.176 47.006476 131.169524 104.984381 131.169524h78.701714z m0 105.033143H104.984381v551.058285h78.701714V236.202667z m997.229715 0v551.058285h78.750476V236.202667h-78.750476z m-345.088 288.670476a48.761905 48.761905 0 0 0 0-82.700191l-249.31962-155.794285a48.761905 48.761905 0 0 0-74.605714 41.350095v311.637333a48.761905 48.761905 0 0 0 74.605714 41.350095l249.31962-155.843047z" p-id="3291"></path></svg>
