<svg t="1599283406519" class="icon" viewBox="0 0 1024 1024" version="1.1" xmlns="http://www.w3.org/2000/svg" p-id="3822" width="32" height="32"><path d="M827.909973 623.081934 538.857694 623.081934l0 83.588767L827.909973 706.670701 827.909973 623.081934zM827.909973 455.265858 538.857694 455.265858l0 84.22731L827.909973 539.493168 827.909973 455.265858zM827.909973 260.011872 197.482747 260.011872l0 83.588767L827.909973 343.600639 827.909973 260.011872zM197.482747 706.670701l236.091066 0L433.573813 455.265858 197.482747 455.265858 197.482747 706.670701zM849.604064 958.076568c-10.847046-32.54216-40.199561-55.513338-74.017784-55.513338-34.456766 0-63.170738 22.971178-74.017784 55.513338L586.713632 958.076568c-10.847046-32.54216-39.561018-55.513338-74.017784-55.513338-34.456766 0-63.170738 22.971178-74.017784 55.513338L323.8232 958.076568c-10.847046-32.54216-39.561018-55.513338-74.017784-55.513338-33.818223 0-63.170738 22.971178-74.017784 55.513338L66.037019 958.076568 66.037019 120.271224c0-30.627555 23.608697-55.513338 52.322669-55.513338l788.67232 0c28.713972 0 52.322669 24.885783 52.322669 55.513338l0 837.804321L849.604064 958.075545 849.604064 958.076568z" p-id="3823"></path></svg>
