<svg t="1599457954155" class="icon" viewBox="0 0 1024 1024" version="1.1" xmlns="http://www.w3.org/2000/svg" p-id="2837" width="32" height="32"><path d="M166.4 334.72h678.4a13.44 13.44 0 0 1 15.36 11.52v23.68a13.44 13.44 0 0 1-15.36 11.52H166.4a13.44 13.44 0 0 1-15.36-11.52v-23.68a13.44 13.44 0 0 1 15.36-11.52z"  p-id="2838"></path><path d="M166.4 438.4h678.4a14.08 14.08 0 0 1 15.36 12.16v23.04a14.08 14.08 0 0 1-15.36 12.16H166.4a14.08 14.08 0 0 1-15.36-12.16v-25.6a14.08 14.08 0 0 1 15.36-9.6z"  p-id="2839"></path><path d="M166.4 543.36h678.4a13.44 13.44 0 0 1 15.36 11.52v21.12a13.44 13.44 0 0 1-15.36 11.52H166.4a13.44 13.44 0 0 1-12.8-11.52v-23.68a13.44 13.44 0 0 1 12.8-8.96z"  p-id="2840"></path><path d="M984.32 148.48H38.4a36.48 36.48 0 0 0-36.48 36.48v583.04a35.2 35.2 0 0 0 35.2 35.84h947.2a35.84 35.84 0 0 0 36.48-35.84V184.96a35.84 35.84 0 0 0-36.48-36.48z m-36.48 583.68H72.96v-512h874.88z"  p-id="2841"></path><path d="M109.44 1024h72.96l64-182.4H175.36z"  p-id="2842"></path><path d="M544 0h-64l-39.68 109.44h145.92z"  p-id="2843"></path><path d="M774.4 840.96l64 182.4h72.96l-64-182.4z"  p-id="2844"></path><path d="M474.24 840.96h72.96v109.44H474.24z"  p-id="2845"></path></svg>
