<svg t="1599284089187" class="icon" viewBox="0 0 1059 1024" version="1.1" xmlns="http://www.w3.org/2000/svg" p-id="13765" width="32" height="32"><path d="M12.141546 32.149112C25.369689 12.165167 49.251211 0.035433 73.191788 0.862191 202.319723 0.885813 331.459469 0.826759 460.587405 0.897624c28.204291-0.200784 55.26293 18.306805 65.408443 44.60955 3.354279 8.373887 5.04323 17.409181 5.007797 26.444475 0 39.814348-0.011811 79.628697 0.011811 119.454856 135.198708 0.023622 270.409227-0.011811 405.607935 0.023622 18.5194 0 36.838016 7.771534 49.79451 20.976055 13.03917 13.05098 20.62173 31.369596 20.491811 49.818132-0.011811 103.628328 0.011811 207.256655-0.011811 310.884982-45.16466-38.904913-102.907866-63.069896-162.422699-67.215501-47.999262-3.720415-96.93158 5.078662-140.537209 25.546851-33.153033 15.472203-63.211626 37.511234-87.978962 64.439954-28.121615 30.507405-49.38113 67.33361-61.558108 107.018039-15.035202 48.743345-16.298962 101.620484-3.744037 151.048858 9.802999 38.763183 28.19248 75.270496 53.243275 106.415686-50.101592 0.165352-100.214994-0.28346-150.316585 0.259839-127.580715-0.023622-255.16143 0.011811-382.753957-0.011811-18.956401 0.070865-37.73564-7.925075-50.857485-21.60203C8.054994 926.855825 1.086597 910.297024 0 893.360277V68.160369C0.921246 55.381038 4.866067 42.755248 12.141546 32.149112m115.935224 218.97301c-6.838478 0.649596-13.369873 3.826713-18.141453 8.751834-11.161246 11.208489-11.338408 31.298731-0.448812 42.743437 5.740069 6.271557 14.267497 9.661269 22.747682 9.425052 69.695779-0.023622 139.391557 0.035433 209.099146-0.023621 10.062837 0.047243 19.91308-5.432987 25.133472-14.043092 4.440877-7.01564 5.267636-15.802907 3.708604-23.822468-2.373979-11.586436-12.425006-21.094164-24.12955-22.806736-5.858178-0.779516-11.78722-0.259839-17.669019-0.401568-66.76669 0.118108-133.54519-0.236217-200.30007 0.177162m0.035433 214.957324c-9.743945 0.885813-18.767428 7.039262-23.220115 15.743853-3.342468 6.188881-3.956632 13.523414-2.952711 20.397324 1.594464 10.570704 9.484106 19.842215 19.617809 23.184683 5.32669 1.936978 11.07857 1.594464 16.641476 1.594463 67.711557 0 135.423114 0.011811 203.12286-0.011811 7.240046-0.011811 14.44466-2.716494 19.783161-7.617993 12.401384-10.830542 13.145467-31.98376 1.948789-43.900899-5.763691-6.389666-14.409227-9.826621-22.972088-9.578593-70.652457 0.129919-141.328535-0.236217-211.969181 0.188973m0.011811 213.764429c-10.051027 0.897624-19.346159 7.417209-23.633495 16.54699-2.999954 5.999908-3.496009 12.956494-2.562953 19.523322 1.582653 10.641569 9.554971 19.972134 19.77135 23.314602 5.267636 1.830681 10.93684 1.559031 16.428881 1.54722h202.059885c8.173103 0.200784 16.41707-2.917278 22.133518-8.810888 11.432895-11.302976 11.539193-31.912895 0.188973-43.310357-5.716448-6.023529-14.078524-9.236078-22.346113-8.97624-70.676078 0.106298-141.375779-0.236217-212.040046 0.165351z" p-id="13766"></path><path d="M793.157093 546.546713c45.105606-4.995986 91.687566 2.917278 132.316863 23.231926 34.664821 17.054856 65.018685 42.743437 87.683691 74.018547 21.554787 29.645213 36.176609 64.298224 42.176517 100.463022 9.720323 57.164475-2.078708 117.813149-33.259331 166.780899-24.094118 38.633264-59.632941 69.967428-100.817347 89.337209-58.380992 27.696424-128.135825 30.02316-188.264822 6.401476-31.759354-12.354141-60.778593-31.641246-84.530196-56.054256-28.275156-28.995617-49.062238-65.254902-59.538454-104.37241-12.247843-45.341822-10.783299-94.309573 4.299146-138.789204 13.251765-39.41278 37.109666-75.152388 68.290289-102.648028 36.507313-32.349896 83.112895-53.148789 131.643644-58.369181m16.641477 100.274048c-3.803091 2.055087-6.649504 5.503852-8.444752 9.377809-11.314787 22.960277-22.676817 45.885121-33.956171 68.857209-23.869712 3.519631-47.751234 6.944775-71.632757 10.405351-5.102284 0.661407-10.547082 1.311003-14.680876 4.688905-9.826621 6.921153-10.499839 22.747682-1.476355 30.625513 18.460346 17.917047 36.838016 35.90496 55.321983 53.786574-4.310957 25.924798-8.928997 51.790542-13.216332 77.715341-1.748005 10.653379 6.791234 21.413057 17.468236 22.393356 6.342422 0.992111 12.082491-2.279493 17.409181-5.196771 21.04692-11.066759 42.08203-22.133518 63.12895-33.188466 22.842168 12.023437 45.696148 24.046874 68.550127 36.070312 7.003829 3.968443 16.381638 3.212549 22.523276-2.055087 5.562907-4.523552 8.243968-12.129735 6.850288-19.157185-4.334579-25.487797-8.751834-50.963783-13.086413-76.45158 18.602076-18.153264 37.251396-36.259285 55.82985-54.436171 5.775502-5.621961 7.511696-14.905283 4.121984-22.216194-2.622007-6.118016-8.515617-10.606136-15.070634-11.621868-25.818501-3.814902-51.672434-7.452641-77.490935-11.302976-11.432895-23.243737-22.913033-46.463852-34.381361-69.683968-4.558985-10.157324-18.259562-14.385606-27.767289-8.610104z" p-id="13767"></path></svg>
